# xmcd
#
# Track frame offsets:
#	150
#	19891
#	37169
#	53591
#	71438
#	88238
#	105942
#	121537
#	137629
#	154782
#	172263
#	191122
#	209499
#	226057
#	240649
#	256084
#
# Disc length: 3618
#
# Revision: 1
# Processed by: cddbd v1.5.1PL0 Copyright (c) Steve Scherf et al.
# Submitted via: EasyCDDAExtractor 7.1.3.1
# Normalized: r0:DSETVAR1
#
DISCID=d50e2010
DTITLE=Various Artist - Sexy Dance
DYEAR=2004
DGENRE=Dance
TTITLE0=Tata Young - Dhoom Dhoom (Tata Young)
TTITLE1=Nu Virgon - Stop Stop Stop (Nu Virgos)
TTITLE2=In-Grid - You Promis Me (In-Grid)
TTITLE3=Beyonce Featuring jay-z - Crazy In Love (Beyonce feat. Jay-Z)
TTITLE4=Sarah Connor - Bounce (Sarah Connor)
TTITLE5=DDP - Punjabi Five-O (DDP)
TTITLE6=Shap! Vs. Motivo - The Power Of Bhangra (Snap! Vs. Motivo)
TTITLE7=Las Ketchup - The Ketchup Song (Asereje) (Las Kethchup)
TTITLE8=Madison Avenue - Don't Call Me Baby (Madison Avenue)
TTITLE9=Destiny's Child - Jumpin' Jumpin' (Destiny' Child)
TTITLE10=Diana King - L-L-Lie (Diana King)
TTITLE11=Anastacia - I'm Outta Love (Anastacia)
TTITLE12=Mandy Moore - In My Pocket (Mandy Moore)
TTITLE13=Jessica Simpson - Irresistible (Jessica Simpson)
TTITLE14=Britney Spears - I'm A Slave For You (Britney Spears)
TTITLE15=Holly Valance - Kiss Kiss (Holly Valance)
EXTD=
EXTT0=
EXTT1=
EXTT2=
EXTT3=
EXTT4=
EXTT5=
EXTT6=
EXTT7=
EXTT8=
EXTT9=
EXTT10=
EXTT11=
EXTT12=
EXTT13=
EXTT14=
EXTT15=
PLAYORDER=
